<?xml version="1.0" encoding="UTF-8"?>
<svg version="1.1" xmlns="http://www.w3.org/2000/svg" width="500" height="500">
<path d="M0 0 C3.3394575 2.81217474 4.23230514 5.46535718 4.63378906 9.78320312 C4.63717285 11.26723633 4.63717285 11.26723633 4.640625 12.78125 C4.64449219 14.41513672 4.64449219 14.41513672 4.6484375 16.08203125 C4.64070313 17.20996094 4.63296875 18.33789062 4.625 19.5 C4.63660156 21.19189453 4.63660156 21.19189453 4.6484375 22.91796875 C4.64585937 24.00722656 4.64328125 25.09648437 4.640625 26.21875 C4.63836914 27.20810547 4.63611328 28.19746094 4.63378906 29.21679688 C4.35808685 32.18189613 3.70198245 34.34132531 2.375 37 C0.5 38.0625 0.5 38.0625 -1.625 38 C-5.80536876 34.71419575 -7.34556417 30.55644157 -9.375 25.8125 C-13.724947 16.18958091 -18.3163866 8.63068434 -28.546875 4.65625 C-40.37258088 0.92181656 -55.04215793 1.5491239 -66.04296875 7.25390625 C-71.9794657 10.80805695 -76.16027315 15.24439334 -78.2265625 21.953125 C-79.8688865 30.39016203 -78.41570785 36.88404614 -73.625 44 C-63.50550783 56.66081261 -47.20899662 62.84666375 -33.01049805 69.73876953 C-14.57705364 78.70792598 -14.57705364 78.70792598 -6.625 85 C-5.18060547 86.13888672 -5.18060547 86.13888672 -3.70703125 87.30078125 C5.60003261 95.55058829 12.89189851 104.40638307 13.6875 117.14453125 C14.13773612 128.9459851 12.88735323 139.81007682 5.046875 149.203125 C-6.12708336 161.2125195 -21.88378187 168.35426372 -38.31616211 169.12646484 C-85.96685906 170.33926527 -85.96685906 170.33926527 -101.625 156 C-104.13322042 152.23766937 -103.91365784 149.25861633 -103.890625 144.90234375 C-103.89253845 144.11227432 -103.8944519 143.3222049 -103.89642334 142.50819397 C-103.89778333 140.83968792 -103.89409988 139.17117122 -103.88574219 137.50268555 C-103.87502558 134.9436072 -103.88565082 132.38522858 -103.8984375 129.82617188 C-103.89711615 128.20572761 -103.89455427 126.58528379 -103.890625 124.96484375 C-103.89467346 124.19712143 -103.89872192 123.42939911 -103.90289307 122.63841248 C-103.85493107 117.22993107 -103.85493107 117.22993107 -101.625 115 C-99 114.875 -99 114.875 -96.625 115 C-94.62211358 118.98796941 -92.62859737 122.9778098 -90.6953125 127 C-84.9367389 138.90934484 -79.92449066 148.40510939 -67.3046875 154.03515625 C-54.44119949 158.37003074 -37.89739064 157.59094806 -25.625 152 C-18.17044456 148.13343686 -13.45965558 143.54295667 -10.3125 135.75 C-8.67666717 126.8272755 -8.95693721 118.96629519 -13.625 111 C-23.25063824 98.15793228 -41.01697591 91.65157385 -55.05297852 84.85449219 C-89.95061547 67.91030938 -89.95061547 67.91030938 -97.625 52 C-97.94210938 51.38382813 -98.25921875 50.76765625 -98.5859375 50.1328125 C-102.37286825 41.20399413 -102.33177435 28.25400909 -98.875 19.25 C-97.10371792 15.61388222 -95.04175304 12.2475119 -92.625 9 C-92.0578125 8.21367187 -91.490625 7.42734375 -90.90625 6.6171875 C-88.30022748 3.62740139 -85.44782409 1.5387177 -82.125 -0.5625 C-81.20666382 -1.14837891 -81.20666382 -1.14837891 -80.26977539 -1.74609375 C-57.64040673 -15.67725318 -22.4806839 -13.3158967 0 0 Z " fill="#E2E3E2" transform="translate(229.625,161)"/>
<path d="M0 0 C0.74330566 -0.0033284 1.48661133 -0.0066568 2.25244141 -0.01008606 C3.82258486 -0.01514419 5.39273903 -0.01749473 6.96289062 -0.01733398 C9.36606483 -0.01952311 11.76878183 -0.03769732 14.171875 -0.05664062 C15.6979151 -0.05957424 17.22395737 -0.06155925 18.75 -0.0625 C19.82822021 -0.07327827 19.82822021 -0.07327827 20.92822266 -0.08427429 C24.63580276 -0.06726934 26.20533939 0.05486167 29.375 2.16796875 C29.045 3.81796875 28.715 5.46796875 28.375 7.16796875 C27.53195312 7.43351563 26.68890625 7.6990625 25.8203125 7.97265625 C24.72460938 8.32585937 23.62890625 8.6790625 22.5 9.04296875 C21.40945313 9.39101562 20.31890625 9.7390625 19.1953125 10.09765625 C16.28977277 10.97972106 16.28977277 10.97972106 14.375 13.16796875 C13.00358716 17.34756919 13.22737818 21.61662924 13.22973633 25.96875 C13.22637772 26.85714066 13.2230191 27.74553131 13.21955872 28.6608429 C13.2100541 31.6007324 13.20810535 34.54056483 13.20703125 37.48046875 C13.20381659 39.53108748 13.20045236 41.58170597 13.19694519 43.63232422 C13.19095391 47.93636608 13.18910512 52.24038786 13.18969727 56.54443359 C13.18979849 62.03386217 13.17618761 67.52316023 13.15892506 73.01255798 C13.14774795 77.25246764 13.14577986 81.49234641 13.14630699 85.73226929 C13.14513388 87.75426683 13.14075004 89.77626536 13.13297462 91.79824829 C12.97288488 117.95580112 12.97288488 117.95580112 25.890625 139.90625 C36.1117534 149.21133387 47.00241038 151.40194732 60.4375 151.54296875 C61.35950195 151.5569873 62.28150391 151.57100586 63.23144531 151.58544922 C75.45281685 151.50054835 86.65359475 147.20177259 95.74609375 138.953125 C104.12764749 129.76758529 106.83760854 118.65410609 106.77905273 106.53344727 C106.78934761 105.01692818 106.78934761 105.01692818 106.79985046 103.46977234 C106.81800282 100.16199308 106.81430061 96.85469285 106.80859375 93.546875 C106.81315808 91.236647 106.81846441 88.92642036 106.82447815 86.61619568 C106.83338417 81.79233249 106.83101111 76.96863513 106.82104492 72.14477539 C106.80950382 65.95496668 106.82985823 59.7657241 106.85896206 53.57598972 C106.87726825 48.81400409 106.87704369 44.05215593 106.87132454 39.29014397 C106.87117093 37.00671527 106.87724761 34.72327748 106.88961601 32.43988228 C106.90443437 29.25846275 106.89391953 26.07811368 106.87670898 22.89672852 C106.88637695 21.95074799 106.89604492 21.00476746 106.90600586 20.03012085 C106.99719627 15.11147636 106.99719627 15.11147636 104.504776 11.11924744 C102.07104452 10.032205 99.69549832 9.19073802 97.125 8.48046875 C96.23296875 8.22910156 95.3409375 7.97773438 94.421875 7.71875 C93.74640625 7.53699219 93.0709375 7.35523438 92.375 7.16796875 C91.88 4.69296875 91.88 4.69296875 91.375 2.16796875 C94.46520095 0.10783479 95.12072112 -0.08338838 98.61523438 -0.09082031 C99.46621704 -0.09712463 100.31719971 -0.10342896 101.19396973 -0.10992432 C102.10964722 -0.10587585 103.02532471 -0.10182739 103.96875 -0.09765625 C104.91182007 -0.0995697 105.85489014 -0.10148315 106.82653809 -0.10345459 C108.82039659 -0.10481556 110.81426399 -0.10112528 112.80810547 -0.09277344 C115.86315786 -0.08207273 118.91762219 -0.09267177 121.97265625 -0.10546875 C123.90885547 -0.10414714 125.84505432 -0.10158472 127.78125 -0.09765625 C128.69692749 -0.10170471 129.61260498 -0.10575317 130.55603027 -0.10992432 C131.40701294 -0.10362 132.25799561 -0.09731567 133.13476562 -0.09082031 C134.25703552 -0.08843353 134.25703552 -0.08843353 135.40197754 -0.08599854 C137.375 0.16796875 137.375 0.16796875 140.375 2.16796875 C140.045 3.81796875 139.715 5.46796875 139.375 7.16796875 C138.05435547 7.40580078 138.05435547 7.40580078 136.70703125 7.6484375 C134.96486328 7.99841797 134.96486328 7.99841797 133.1875 8.35546875 C131.46466797 8.68611328 131.46466797 8.68611328 129.70703125 9.0234375 C125.59100346 10.43726651 124.03081354 11.70904101 121.375 15.16796875 C120.65877416 18.39611603 120.72510013 21.54965298 120.77905273 24.8449707 C120.77296494 26.29981117 120.77296494 26.29981117 120.76675415 27.78404236 C120.76123856 29.888548 120.76724078 31.99310826 120.78341484 34.09755898 C120.8088676 37.44223535 120.80402222 40.78568066 120.79151917 44.13041687 C120.7707591 51.24723569 120.79041195 58.36367504 120.8125 65.48046875 C120.83368555 73.69446868 120.83794782 81.90806849 120.81199837 90.12206078 C120.8086715 93.39232051 120.82975425 96.66179356 120.85240173 99.93196106 C120.88104013 119.07193108 118.27757697 137.69080117 104.50390625 152.265625 C87.78203893 167.20791745 69.68157297 171.12251189 47.81298828 170.31152344 C37.25837794 169.69004228 27.19593126 165.96491431 18.375 160.16796875 C17.57876221 159.66676514 16.78252441 159.16556152 15.9621582 158.64916992 C12.10497465 155.8216278 9.70475236 153.78005022 8.72314453 148.98120117 C8.63200053 145.23580051 8.78680293 141.59163934 9.0625 137.85546875 C9.87910052 124.03006693 7.98422896 114.21576335 -0.625 103.16796875 C-1.29781006 102.49813965 -1.97062012 101.82831055 -2.66381836 101.13818359 C-8.72300001 94.84033024 -9.67813295 89.19134561 -9.57226562 80.80273438 C-9.54946533 80.07223877 -9.52666504 79.34174316 -9.50317383 78.58911133 C-9.43705265 76.34025387 -9.44162473 74.09926114 -9.45507812 71.84960938 C-9.3341955 60.99118647 -9.3341955 60.99118647 -6.1862793 57.3371582 C-5.34105713 56.62132568 -4.49583496 55.90549316 -3.625 55.16796875 C1.83494349 48.73303535 0.59330344 41.0274325 0.625 32.98046875 C0.645625 31.69076172 0.66625 30.40105469 0.6875 29.07226562 C0.90104322 17.13143105 0.90104322 17.13143105 -4.66796875 7.046875 C-5.37566406 6.61246094 -6.08335937 6.17804688 -6.8125 5.73046875 C-8.10662601 4.91202149 -9.38499784 4.06630761 -10.625 3.16796875 C-10.625 2.50796875 -10.625 1.84796875 -10.625 1.16796875 C-7.03224389 -0.02961662 -3.74030183 0.00579051 0 0 Z " fill="#E2E3E2" transform="translate(241.625,148.83203125)"/>
<path d="M0 0 C0.99 0.66 1.98 1.32 3 2 C3.2487793 4.15478516 3.2487793 4.15478516 3.07421875 6.7890625 C3.01943359 7.73007812 2.96464844 8.67109375 2.90820312 9.640625 C2.83537109 10.62546875 2.76253906 11.6103125 2.6875 12.625 C2.5956543 14.11386719 2.5956543 14.11386719 2.50195312 15.6328125 C2.34839342 18.08976785 2.18051265 20.54490157 2 23 C1.34 23.33 0.68 23.66 0 24 C-3.88975419 20.40945767 -6.89732195 16.26101118 -10 12 C-11.66342837 13.66342837 -11.36048097 15.7825709 -11.5625 18.0625 C-11.68818359 19.44115234 -11.68818359 19.44115234 -11.81640625 20.84765625 C-11.87699219 21.55792969 -11.93757812 22.26820313 -12 23 C-13.32 23 -14.64 23 -16 23 C-16 16.07 -16 9.14 -16 2 C-14.68 1.67 -13.36 1.34 -12 1 C-9.03 5.29 -6.06 9.58 -3 14 C-2.690625 11.875625 -2.38125 9.75125 -2.0625 7.5625 C-1.125 1.125 -1.125 1.125 0 0 Z " fill="#DADCDC" transform="translate(247,360)"/>
<path d="M0 0 C0.87269531 -0.01417969 1.74539063 -0.02835937 2.64453125 -0.04296875 C5.33276695 0.20066551 6.92530852 0.73868073 9.1875 2.1875 C10.59207737 4.99665474 10.43645157 7.07560534 10.1875 10.1875 C9.65125 10.868125 9.115 11.54875 8.5625 12.25 C8.10875 12.889375 7.655 13.52875 7.1875 14.1875 C7.86268454 16.79220331 7.86268454 16.79220331 9.1875 19.1875 C9.5175 20.1775 9.8475 21.1675 10.1875 22.1875 C8.8675 22.1875 7.5475 22.1875 6.1875 22.1875 C2.1875 17.07638889 2.1875 17.07638889 2.1875 14.1875 C1.1975 14.1875 0.2075 14.1875 -0.8125 14.1875 C-0.8125 16.8275 -0.8125 19.4675 -0.8125 22.1875 C-2.7925 23.1775 -2.7925 23.1775 -4.8125 24.1875 C-5.64404277 21.28205489 -5.94088334 18.69425118 -5.9453125 15.67578125 C-5.94660156 14.83595703 -5.94789063 13.99613281 -5.94921875 13.13085938 C-5.94535156 12.26267578 -5.94148438 11.39449219 -5.9375 10.5 C-5.94136719 9.62021484 -5.94523437 8.74042969 -5.94921875 7.83398438 C-5.94792969 6.99802734 -5.94664062 6.16207031 -5.9453125 5.30078125 C-5.94418457 4.53548096 -5.94305664 3.77018066 -5.94189453 2.98168945 C-5.67377369 -0.7360843 -3.15661522 0.02310846 0 0 Z M-0.8125 3.1875 C-0.8125 5.8275 -0.8125 8.4675 -0.8125 11.1875 C2.6525 10.6925 2.6525 10.6925 6.1875 10.1875 C6.43780977 7.77130177 6.43780977 7.77130177 6.1875 5.1875 C3.23372502 2.81769987 3.23372502 2.81769987 -0.8125 3.1875 Z " fill="#DBDCDE" transform="translate(364.8125,360.8125)"/>
<path d="M0 0 C3.42448768 0.39250772 6.36775427 0.81474959 9.5390625 2.20703125 C11.80839597 5.16703143 11.419552 7.47483107 10.9765625 11.08203125 C10.4403125 11.78328125 9.9040625 12.48453125 9.3515625 13.20703125 C8.8978125 13.82578125 8.4440625 14.44453125 7.9765625 15.08203125 C8.74366049 17.62498363 8.74366049 17.62498363 9.9765625 20.08203125 C9.9765625 21.40203125 9.9765625 22.72203125 9.9765625 24.08203125 C6.9765625 23.08203125 6.9765625 23.08203125 5.9140625 21.48828125 C5.2890625 20.21744792 4.6640625 18.94661458 4.0390625 17.67578125 C2.98706892 15.74445527 2.98706892 15.74445527 -0.0234375 15.08203125 C-0.0234375 17.39203125 -0.0234375 19.70203125 -0.0234375 22.08203125 C-1.3434375 22.41203125 -2.6634375 22.74203125 -4.0234375 23.08203125 C-4.08132756 19.62376783 -4.11699571 16.16562832 -4.1484375 12.70703125 C-4.16519531 11.7221875 -4.18195313 10.73734375 -4.19921875 9.72265625 C-4.20566406 8.78164063 -4.21210938 7.840625 -4.21875 6.87109375 C-4.22922363 6.00178223 -4.23969727 5.1324707 -4.25048828 4.23681641 C-3.93775023 1.26883144 -3.04737256 0.12354213 0 0 Z M0.9765625 4.08203125 C-0.43921227 5.26627451 -0.43921227 5.26627451 -0.0859375 8.64453125 C-0.0653125 9.77890625 -0.0446875 10.91328125 -0.0234375 12.08203125 C2.39302032 12.24890573 2.39302032 12.24890573 4.9765625 12.08203125 C5.6365625 11.42203125 6.2965625 10.76203125 6.9765625 10.08203125 C6.65614853 7.47922557 6.65614853 7.47922557 5.9765625 5.08203125 C4.32041593 4.69984358 2.65199226 4.36808023 0.9765625 4.08203125 Z " fill="#DEDFE1" transform="translate(326.0234375,359.91796875)"/>
<path d="M0 0 C0.66 0 1.32 0 2 0 C3.60725635 3.21451269 3.05748185 6.43612536 3 10 C7.455 9.505 7.455 9.505 12 9 C12.33 6.36 12.66 3.72 13 1 C14.32 1 15.64 1 17 1 C17 7.93 17 14.86 17 22 C15.68 22 14.36 22 13 22 C12.67 19.36 12.34 16.72 12 14 C9.03 13.67 6.06 13.34 3 13 C3 15.97 3 18.94 3 22 C1.68 22 0.36 22 -1 22 C-1.02887814 18.52085059 -1.04675687 15.04173169 -1.0625 11.5625 C-1.07087891 10.56927734 -1.07925781 9.57605469 -1.08789062 8.55273438 C-1.09111328 7.60849609 -1.09433594 6.66425781 -1.09765625 5.69140625 C-1.10289307 4.81685791 -1.10812988 3.94230957 -1.11352539 3.04125977 C-1 1 -1 1 0 0 Z " fill="#D6D6D6" transform="translate(152,361)"/>
<path d="M0 0 C0.99 0.33 1.98 0.66 3 1 C3.39910769 15.74481174 3.39910769 15.74481174 1 21 C-2.03528978 23.77512209 -3.49878574 24.01728325 -7.625 23.875 C-12.20895522 22.68656716 -12.20895522 22.68656716 -14 20 C-15.27326798 16.28556996 -15.09855117 12.64352615 -15.0625 8.75 C-15.05347656 7.48671875 -15.04445313 6.2234375 -15.03515625 4.921875 C-15.02355469 3.95765625 -15.01195312 2.9934375 -15 2 C-13.68 1.67 -12.36 1.34 -11 1 C-9.73417781 4.86723631 -9.8881235 8.73151262 -9.9375 12.75 C-9.94201172 13.44738281 -9.94652344 14.14476562 -9.95117188 14.86328125 C-9.9628998 16.57555803 -9.98083347 18.28779033 -10 20 C-7.08365871 20.2502157 -7.08365871 20.2502157 -4 20 C-1.52447124 16.28670686 -1.59281446 13.18592319 -1.4375 8.875 C-1.12058024 1.12058024 -1.12058024 1.12058024 0 0 Z " fill="#DDDDDD" transform="translate(310,360)"/>
<path d="M0 0 C1.87109375 0.21484375 1.87109375 0.21484375 4 1 C5.16015625 3.00390625 5.16015625 3.00390625 6.0625 5.5625 C6.38734375 6.46355469 6.7121875 7.36460937 7.046875 8.29296875 C7.36140625 9.18628906 7.6759375 10.07960938 8 11 C8.60413648 12.45834584 9.20829985 13.91668054 9.8125 15.375 C10.98094365 18.941828 11.07667519 19.67475827 10 23 C9.29875 22.175 8.5975 21.35 7.875 20.5 C5.22699138 17.7231939 5.22699138 17.7231939 1.8125 17.625 C-0.94643572 17.83776796 -0.94643572 17.83776796 -3 19 C-4.13350534 21.01669827 -4.13350534 21.01669827 -5 23 C-5.99 22.67 -6.98 22.34 -8 22 C-6.85633882 18.70757455 -5.70970297 15.41619286 -4.5625 12.125 C-4.07426758 10.71927734 -4.07426758 10.71927734 -3.57617188 9.28515625 C-3.26357422 8.38925781 -2.95097656 7.49335938 -2.62890625 6.5703125 C-2.34088135 5.74289551 -2.05285645 4.91547852 -1.75610352 4.06298828 C-1 2 -1 2 0 0 Z M1 8 C0.34 9.98 -0.32 11.96 -1 14 C1.475 14.495 1.475 14.495 4 15 C3.65772428 12.02934491 3.65772428 12.02934491 3 9 C2.34 8.67 1.68 8.34 1 8 Z " fill="#D2D3D2" transform="translate(185,361)"/>
<path d="M0 0 C0.99 0.66 1.98 1.32 3 2 C3 3.32 3 4.64 3 6 C2.443125 5.855625 1.88625 5.71125 1.3125 5.5625 C-1.11384195 4.97230872 -3.54906345 4.476571 -6 4 C-6 5.32 -6 6.64 -6 8 C-5.36191406 8.20753906 -4.72382813 8.41507812 -4.06640625 8.62890625 C-1.52215412 9.57754316 0.71205599 10.53314992 3 12 C4.375 15.5 4.375 15.5 4 19 C1.45225063 22.01097653 -0.16306349 22.88043764 -4.0625 23.4375 C-7.31792025 22.95265018 -8.76476946 22.40717135 -11 20 C-11 18.68 -11 17.36 -11 16 C-8.6736924 16.51695724 -6.59109741 17.16550819 -4.375 18.0625 C-2.11550447 19.12238884 -2.11550447 19.12238884 0 19 C-0.11744197 17.06321646 -0.11744197 17.06321646 -1 15 C-3.27422223 13.57060953 -3.27422223 13.57060953 -6 12.5 C-10.77931661 10.49051461 -10.77931661 10.49051461 -11.89453125 8.01171875 C-12.05286347 4.99167818 -10.74281146 3.38829719 -9 1 C-5.98131566 -0.50934217 -3.32702771 -0.17510672 0 0 Z " fill="#DADDDC" transform="translate(138,361)"/>
<path d="M0 0 C1.32 0.33 2.64 0.66 4 1 C3.98839844 1.97582031 3.97679687 2.95164062 3.96484375 3.95703125 C3.95582031 5.22933594 3.94679687 6.50164062 3.9375 7.8125 C3.92589844 9.07707031 3.91429687 10.34164063 3.90234375 11.64453125 C3.83840884 14.99605237 3.83840884 14.99605237 5 18 C6.98 18.33 8.96 18.66 11 19 C13.48044315 15.27933528 13.44381173 12.13459526 13.625 7.8125 C13.68300781 6.68811523 13.68300781 6.68811523 13.7421875 5.54101562 C13.83628216 3.69440801 13.91922319 1.8472381 14 0 C14.99 0 15.98 0 17 0 C17.05420701 2.56278699 17.09377007 5.12441483 17.125 7.6875 C17.14175781 8.40873047 17.15851563 9.12996094 17.17578125 9.87304688 C17.21381487 14.03772878 16.96195068 17.29331461 15 21 C11.92044703 23.60577559 8.70098683 23.07627727 4.90234375 22.77734375 C1.87542507 21.54047144 1.26168909 19.98288224 0 17 C-0.34211867 14.04900164 -0.2844437 11.15298306 -0.1875 8.1875 C-0.17396484 7.39923828 -0.16042969 6.61097656 -0.14648438 5.79882812 C-0.11133456 3.86558831 -0.05753361 1.93270318 0 0 Z " fill="#D4D5D6" transform="translate(205,361)"/>
<path d="M0 0 C-0.33 0.66 -0.66 1.32 -1 2 C-3.32156597 2.40729228 -5.6568787 2.74438677 -8 3 C-8.33 4.98 -8.66 6.96 -9 9 C-6.69 9 -4.38 9 -2 9 C-2 9.99 -2 10.98 -2 12 C-4.31 12.33 -6.62 12.66 -9 13 C-9 14.98 -9 16.96 -9 19 C-6.36 19 -3.72 19 -1 19 C-1 19.99 -1 20.98 -1 22 C-2.62490954 22.02698189 -4.24994633 22.04638757 -5.875 22.0625 C-7.23238281 22.07990234 -7.23238281 22.07990234 -8.6171875 22.09765625 C-11 22 -11 22 -13 21 C-13 13.74 -13 6.48 -13 -1 C-4 -2 -4 -2 0 0 Z " fill="#D2D3D7" transform="translate(272,362)"/>
<path d="M0 0 C0.87269531 -0.01417969 1.74539063 -0.02835937 2.64453125 -0.04296875 C5.35360671 0.20255422 6.93986091 0.66718682 9.1875 2.1875 C9.5175 3.1775 9.8475 4.1675 10.1875 5.1875 C2.75892857 4.1875 2.75892857 4.1875 -0.8125 3.1875 C-0.8125 5.8275 -0.8125 8.4675 -0.8125 11.1875 C-2.4625 11.8475 -4.1125 12.5075 -5.8125 13.1875 C-5.83936553 11.20840602 -5.85883375 9.22921029 -5.875 7.25 C-5.88660156 6.14785156 -5.89820313 5.04570312 -5.91015625 3.91015625 C-5.74759859 -0.62195144 -4.0773442 0.02984879 0 0 Z " fill="#E6E6E6" transform="translate(364.8125,360.8125)"/>
<path d="M0 0 C2.97 0 5.94 0 9 0 C8.67 0.66 8.34 1.32 8 2 C8.61875 2.556875 9.2375 3.11375 9.875 3.6875 C12.06106379 6.06645178 12.98785699 7.96357096 14 11 C12.68 11 11.36 11 10 11 C9.05598958 9.20963542 8.11197917 7.41927083 7.16796875 5.62890625 C6.00980201 3.67732013 6.00980201 3.67732013 3 3 C3 5.31 3 7.62 3 10 C1.68 10.33 0.36 10.66 -1 11 C-1.0270043 9.54176788 -1.04639787 8.08339325 -1.0625 6.625 C-1.07410156 5.81289063 -1.08570313 5.00078125 -1.09765625 4.1640625 C-1 2 -1 2 0 0 Z " fill="#D5D6D7" transform="translate(323,372)"/>
<path d="M0 0 C0.99 0.33 1.98 0.66 3 1 C3 7.93 3 14.86 3 22 C1.68 22 0.36 22 -1 22 C-1.02887814 18.52085059 -1.04675687 15.04173169 -1.0625 11.5625 C-1.07087891 10.56927734 -1.07925781 9.57605469 -1.08789062 8.55273438 C-1.09111328 7.60849609 -1.09433594 6.66425781 -1.09765625 5.69140625 C-1.10289307 4.81685791 -1.10812988 3.94230957 -1.11352539 3.04125977 C-1 1 -1 1 0 0 Z " fill="#D8DADB" transform="translate(385,361)"/>
<path d="M0 0 C-0.33 0.66 -0.66 1.32 -1 2 C-3.32156597 2.40729228 -5.6568787 2.74438677 -8 3 C-8.99 5.97 -9.98 8.94 -11 12 C-11.66 12 -12.32 12 -13 12 C-13 7.71 -13 3.42 -13 -1 C-11.5975 -1.20625 -10.195 -1.4125 -8.75 -1.625 C-7.56664062 -1.79902344 -7.56664062 -1.79902344 -6.359375 -1.9765625 C-3.67847541 -2.00319395 -2.27305911 -1.36592084 0 0 Z " fill="#DADBDC" transform="translate(272,362)"/>
<path d="M0 0 C0.99 0.33 1.98 0.66 3 1 C3.02717692 3.06242617 3.0464758 5.12495703 3.0625 7.1875 C3.07410156 8.33605469 3.08570313 9.48460937 3.09765625 10.66796875 C3.01097777 13.62543838 2.86066335 16.17210614 2 19 C-0.5625 20.3125 -0.5625 20.3125 -3 21 C-2.8453125 20.50886719 -2.690625 20.01773437 -2.53125 19.51171875 C-1.63198062 15.260026 -1.59916111 10.91141022 -1.39453125 6.58007812 C-1.10224581 1.10224581 -1.10224581 1.10224581 0 0 Z " fill="#E0E0E0" transform="translate(310,360)"/>
<path d="M0 0 C1.88671875 0.22265625 1.88671875 0.22265625 4 1 C5.08203125 2.99609375 5.08203125 2.99609375 5.8125 5.4375 C6.06644531 6.24058594 6.32039062 7.04367187 6.58203125 7.87109375 C7 10 7 10 6 12 C5.01 11.67 4.02 11.34 3 11 C2.67 10.34 2.34 9.68 2 9 C0.35 9.33 -1.3 9.66 -3 10 C-2.49287967 6.28111761 -1.88391785 3.26545761 0 0 Z " fill="#DADCDB" transform="translate(185,361)"/>
<path d="M0 0 C0.99 0 1.98 0 3 0 C3.97556564 2.92669691 4.0606341 4.44061321 3.87890625 7.44921875 C3.83056641 8.29677734 3.78222656 9.14433594 3.73242188 10.01757812 C3.67634766 10.89865234 3.62027344 11.77972656 3.5625 12.6875 C3.51029297 13.58017578 3.45808594 14.47285156 3.40429688 15.39257812 C3.2747182 17.5954156 3.13975754 19.79778873 3 22 C2.01 22 1.02 22 0 22 C0 14.74 0 7.48 0 0 Z " fill="#D3D3D3" transform="translate(347,361)"/>
<path d="M0 0 C2.3263076 0.51695724 4.40890259 1.16550819 6.625 2.0625 C8.88449553 3.12238884 8.88449553 3.12238884 11 3 C11.33 2.01 11.66 1.02 12 0 C12.66 0.33 13.32 0.66 14 1 C13.6875 2.875 13.6875 2.875 13 5 C9.51131349 7.32579101 8.10281481 7.41865457 4 7 C1.625 5.75 1.625 5.75 0 4 C0 2.68 0 1.36 0 0 Z " fill="#CACDCC" transform="translate(127,377)"/>
<path d="M0 0 C0.99 0.66 1.98 1.32 3 2 C2.67 6.29 2.34 10.58 2 15 C0.68 14.67 -0.64 14.34 -2 14 C-2.05437607 12.41705218 -2.09296271 10.83355744 -2.125 9.25 C-2.14820313 8.36828125 -2.17140625 7.4865625 -2.1953125 6.578125 C-1.99139502 3.8864142 -1.36551721 2.30095026 0 0 Z " fill="#DCDDDE" transform="translate(247,360)"/>
<path d="M0 0 C4.38024518 0.66367351 8.15011044 1.77890987 12 4 C12.9375 7.6875 12.9375 7.6875 13 11 C12.67 10.34 12.34 9.68 12 9 C10.16074601 7.95494265 10.16074601 7.95494265 8 7 C5.33333333 5.66666667 2.66666667 4.33333333 0 3 C0 2.01 0 1.02 0 0 Z " fill="#D5D6D6" transform="translate(129,369)"/>
<path d="M0 0 C1.32 0.33 2.64 0.66 4 1 C3.67 5.62 3.34 10.24 3 15 C2.34 15 1.68 15 1 15 C0.67 15.66 0.34 16.32 0 17 C0 11.39 0 5.78 0 0 Z " fill="#DBDBDB" transform="translate(205,361)"/>
<path d="M0 0 C0.66 1.32 1.32 2.64 2 4 C8.08408472 4.19814261 8.08408472 4.19814261 14 3 C12.9375 4.9375 12.9375 4.9375 11 7 C7.06246161 8.09376066 4.87524736 8.3538234 1.0625 6.8125 C0.381875 6.214375 -0.29875 5.61625 -1 5 C-1 1 -1 1 0 0 Z " fill="#CECECE" transform="translate(298,376)"/>
<path d="M0 0 C0.99 0.33 1.98 0.66 3 1 C2.9129995 2.62600941 2.8048219 4.25089678 2.6875 5.875 C2.62949219 6.77992188 2.57148438 7.68484375 2.51171875 8.6171875 C2 11 2 11 -1 13 C-2.53617912 8.90352234 -1.69045256 5.21176063 -1 1 C-0.67 0.67 -0.34 0.34 0 0 Z " fill="#D8D8D8" transform="translate(166,361)"/>
<path d="M0 0 C-0.33 0.66 -0.66 1.32 -1 2 C-4.63 2 -8.26 2 -12 2 C-12.33 1.01 -12.66 0.02 -13 -1 C-11.58566794 -1.2236337 -10.16832382 -1.42826476 -8.75 -1.625 C-7.56664062 -1.79902344 -7.56664062 -1.79902344 -6.359375 -1.9765625 C-3.67847541 -2.00319395 -2.27305911 -1.36592084 0 0 Z " fill="#E1E2E4" transform="translate(272,362)"/>
<path d="M0 0 C1.98 0.99 1.98 0.99 4 2 C4 4.31 4 6.62 4 9 C2.68 9 1.36 9 0 9 C0 6.03 0 3.06 0 0 Z " fill="#CDD2D0" transform="translate(151,374)"/>
<path d="M0 0 C2.97 0.33 5.94 0.66 9 1 C8.67 1.99 8.34 2.98 8 4 C3.545 4.495 3.545 4.495 -1 5 C-0.67 3.35 -0.34 1.7 0 0 Z " fill="#E5E6E8" transform="translate(324,360)"/>
<path d="M0 0 C0.99 0 1.98 0 3 0 C4.12758089 3.38274266 3.81750262 4.76778223 3.0625 8.1875 C2.86785156 9.08855469 2.67320312 9.98960937 2.47265625 10.91796875 C2.31667969 11.60503906 2.16070312 12.29210937 2 13 C1.67 13 1.34 13 1 13 C0.67 8.71 0.34 4.42 0 0 Z " fill="#DEDEDE" transform="translate(347,361)"/>
<path d="M0 0 C1.22589844 0.01353516 1.22589844 0.01353516 2.4765625 0.02734375 C3.41628906 0.04474609 3.41628906 0.04474609 4.375 0.0625 C4.375 1.0525 4.375 2.0425 4.375 3.0625 C1.075 3.0625 -2.225 3.0625 -5.625 3.0625 C-5.955 2.4025 -6.285 1.7425 -6.625 1.0625 C-4.21954362 -0.14022819 -2.67503047 -0.03821472 0 0 Z " fill="#C9CACB" transform="translate(266.625,380.9375)"/>
<path d="M0 0 C0.99 0 1.98 0 3 0 C4.32 2.64 5.64 5.28 7 8 C5.68 8 4.36 8 3 8 C0.82542733 5.12645755 0 3.63563409 0 0 Z " fill="#D1D1D4" transform="translate(368,375)"/>
<path d="M0 0 C0.99 0.33 1.98 0.66 3 1 C3 3.31 3 5.62 3 8 C1.68 8 0.36 8 -1 8 C-1.125 2.25 -1.125 2.25 0 0 Z " fill="#D6D6D7" transform="translate(232,375)"/>
<path d="M0 0 C4.1424367 1.38081223 5.32203099 3.59825558 8 7 C7.01 7.33 6.02 7.66 5 8 C4.67 7.34 4.34 6.68 4 6 C2.35636866 5.27840576 0.68949614 4.60648579 -1 4 C-0.67 2.68 -0.34 1.36 0 0 Z " fill="#D6D6D6" transform="translate(147,305)"/>
<path d="M0 0 C1.875 0.25 1.875 0.25 4 1 C4.69937532 2.31647119 5.36729133 3.65022151 6 5 C6.99 5.33 7.98 5.66 9 6 C9 6.33 9 6.66 9 7 C2.25 6.25 2.25 6.25 0 4 C0 2.68 0 1.36 0 0 Z " fill="#D2D4D3" transform="translate(127,377)"/>
<path d="M0 0 C0.66 0.99 1.32 1.98 2 3 C1.01 3.495 1.01 3.495 0 4 C-1.13350534 6.01669827 -1.13350534 6.01669827 -2 8 C-2.99 7.67 -3.98 7.34 -5 7 C-4.1875 4.0625 -4.1875 4.0625 -3 1 C-2.01 0.67 -1.02 0.34 0 0 Z " fill="#C9C9C9" transform="translate(182,376)"/>
<path d="M0 0 C0.33 0 0.66 0 1 0 C1.36363636 7.27272727 1.36363636 7.27272727 -0.25 10.5 C-2 12 -2 12 -6 12 C-5.67 10.68 -5.34 9.36 -5 8 C-3.68 7.67 -2.36 7.34 -1 7 C-0.67 4.69 -0.34 2.38 0 0 Z " fill="#EFF2F1" transform="translate(233,185)"/>
<path d="M0 0 C1.485 0.99 1.485 0.99 3 2 C3.1875 4.625 3.1875 4.625 3 7 C1.68 7.33 0.36 7.66 -1 8 C-0.67 5.36 -0.34 2.72 0 0 Z " fill="#CDCDCF" transform="translate(323,375)"/>
<path d="M0 0 C0.99 0.66 1.98 1.32 3 2 C3.1875 5.125 3.1875 5.125 3 8 C2.01 7.34 1.02 6.68 0 6 C-0.66 6.66 -1.32 7.32 -2 8 C-1.125 1.125 -1.125 1.125 0 0 Z " fill="#E9E9E9" transform="translate(247,360)"/>
<path d="M0 0 C3.24596728 2.16397819 3.44192984 2.45491802 4.25 6 C4.50523437 7.051875 4.50523437 7.051875 4.765625 8.125 C5 10 5 10 4 12 C3.01 11.67 2.02 11.34 1 11 C1 8.33333333 1 5.66666667 1 3 C0.34 2.34 -0.32 1.68 -1 1 C-0.67 0.67 -0.34 0.34 0 0 Z " fill="#D6DCD8" transform="translate(187,361)"/>
<path d="M0 0 C1.65 0.33 3.3 0.66 5 1 C5.33 1.99 5.66 2.98 6 4 C5.34 4 4.68 4 4 4 C3.67 4.99 3.34 5.98 3 7 C1.68 5.35 0.36 3.7 -1 2 C-0.67 1.34 -0.34 0.68 0 0 Z " fill="#D9D9DD" transform="translate(331,362)"/>
<path d="M0 0 C0.66 0.33 1.32 0.66 2 1 C1.67 2.65 1.34 4.3 1 6 C-1.31 6.33 -3.62 6.66 -6 7 C-4.6875 5.5 -4.6875 5.5 -3 4 C-2.01 4 -1.02 4 0 4 C0 2.68 0 1.36 0 0 Z " fill="#EFF1F0" transform="translate(269,150)"/>
<path d="M0 0 C2 1 2 1 4 4 C1 6 1 6 -2 6 C-1.34 4.02 -0.68 2.04 0 0 Z " fill="#E6E7E6" transform="translate(185,361)"/>
<path d="M0 0 C0.66 0 1.32 0 2 0 C2 0.99 2 1.98 2 3 C2.99 3.66 3.98 4.32 5 5 C3.35 5.33 1.7 5.66 0 6 C-0.38218767 4.34385343 -0.71395102 2.67542976 -1 1 C-0.67 0.67 -0.34 0.34 0 0 Z " fill="#F2F2F2" transform="translate(334,150)"/>
<path d="M0 0 C2.97 0 5.94 0 9 0 C7.515 1.485 7.515 1.485 6 3 C2.8125 2.6875 2.8125 2.6875 0 2 C0 1.34 0 0.68 0 0 Z " fill="#CECECE" transform="translate(155,371)"/>
</svg>
